Coordinates
version=1
nRows=10
nColumns=34
inDegrees=yes

Units are S.I. units (second, meters, Newtons, ...)
If the header above contains a line with 'inDegrees', this indicates whether rotational values are in degrees (yes) or radians (no).

endheader
time	pelvis_tilt	pelvis_list	pelvis_rotation	pelvis_tx	pelvis_ty	pelvis_tz	hip_flexion_r	hip_adduction_r	hip_rotation_r	knee_angle_r	ankle_angle_r	subtalar_angle_r	mtp_angle_r	hip_flexion_l	hip_adduction_l	hip_rotation_l	knee_angle_l	ankle_angle_l	subtalar_angle_l	mtp_angle_l	lumbar_extension	lumbar_bending	lumbar_rotation	arm_flex_r	arm_add_r	arm_rot_r	elbow_flex_r	pro_sup_r	arm_flex_l	arm_add_l	arm_rot_l	elbow_flex_l	pro_sup_l
     10.30833330	    -27.41499533	      1.49369342	      1.53988547	      1.65302093	      0.96970716	     -0.83100978	     38.52546044	     -5.00218374	     -3.28981773	     28.39920388	     14.47568586	    -11.50834287	      0.00000000	     35.58557552	     -0.32568318	     -3.74035112	     22.25356477	      8.51808855	     -7.64180210	      0.00000000	      1.35754922	     -2.13458676	     -0.86367994	    -21.92548633	    -36.53099632	     33.97602634	     84.40254123	     90.02138410	    -22.54791731	    -40.77168420	     37.81026022	     85.20845865	    102.40770079
     10.31666670	    -28.20919785	      1.53120361	      1.30421946	      1.64948052	      0.96529043	     -0.82970914	     40.05980485	     -4.92566761	     -3.07534134	     29.40891022	     15.10803523	    -11.66888661	      0.00000000	     37.10684421	     -0.52041585	     -3.95079813	     23.40441323	      9.36474593	     -7.76982111	      0.00000000	      2.21893915	     -2.23782902	     -0.87457170	    -21.99511648	    -36.57132323	     34.49619443	     84.08064034	     89.94714980	    -23.19016931	    -40.68898683	     37.37523739	     85.20203648	    102.21787553
     10.32500000	    -28.08545963	      1.51967840	      1.17159607	      1.64762443	      0.96477829	     -0.82923505	     40.61163605	     -4.84398114	     -2.96762583	     30.34825915	     15.70902183	    -11.87650041	      0.00000000	     37.56306612	     -0.66388475	     -3.87903749	     24.33994331	      9.91591455	     -8.07051325	      0.00000000	      1.69268576	     -2.21827622	     -0.93850810	    -21.73700720	    -36.52033056	     34.62678005	     83.92370788	     89.92256099	    -23.14278194	    -40.64709384	     37.30564664	     85.14666873	    102.17300316
     10.33333330	    -27.99930496	      1.55333891	      1.08821769	      1.64638583	      0.96266174	     -0.82953311	     41.05353052	     -4.88554429	     -2.96639732	     31.24469624	     16.08466449	    -11.98908230	      0.00000000	     38.09518664	     -0.75308016	     -3.88583751	     25.39414980	     10.34865656	     -8.26666816	      0.00000000	      1.14573296	     -2.21308639	     -0.91239027	    -21.69341992	    -36.50151746	     34.79086127	     83.76560960	     89.91268545	    -23.25298871	    -40.62842025	     37.34235153	     85.04113649	    102.14994062
     10.34166670	    -28.20332413	      1.52293994	      1.07000862	      1.64584172	      0.96107728	     -0.82972903	     41.72800255	     -4.89420509	     -2.92611919	     32.17243306	     17.00230572	    -11.62632883	      0.00000000	     38.95814352	     -0.86483074	     -3.75046147	     26.61148226	     11.38182526	     -8.10865573	      0.00000000	      1.43108336	     -2.18684964	     -1.01985614	    -21.41954102	    -36.64092681	     35.46191746	     83.58632758	     89.86783084	    -23.49255122	    -40.62207996	     37.32854132	     85.13538025	    102.02476415
     10.35000000	    -28.11556103	      1.53622570	      1.11916695	      1.64250970	      0.95637963	     -0.82980692	     42.23277507	     -4.99785262	     -2.90815440	     33.20696523	     17.35834059	    -11.77600307	      0.00000000	     39.61921555	     -0.92265444	     -3.90308133	     27.98422453	     11.53719317	     -8.29919095	      0.00000000	      0.77777884	     -2.21221028	     -1.08936823	    -21.20627515	    -36.67948302	     35.53489069	     83.52796254	     89.85696927	    -23.31857936	    -40.64120499	     37.25520708	     85.08383873	    101.99968506
     10.35833330	    -28.61465147	      1.42593714	      1.30000134	      1.64044720	      0.95326674	     -0.83017270	     43.39717405	     -5.10325685	     -2.91432275	     34.53079272	     18.51378020	    -11.65007708	      0.00000000	     40.99377044	     -0.93274130	     -3.58514259	     29.55829922	     12.52598842	     -8.37043241	      0.00000000	      1.19453270	     -2.06693563	     -1.34476412	    -20.96718489	    -37.00497072	     36.20868857	     83.76119621	     89.83033800	    -23.52572378	    -40.73980798	     37.31030901	     85.35742495	    101.89087976
     10.36666670	    -28.57793302	      1.41588575	      1.42347266	      1.63894997	      0.95270481	     -0.82975456	     43.90246649	     -5.19782197	     -2.87031800	     35.39928465	     18.74134314	    -11.76034473	      0.00000000	     41.63399575	     -0.93119255	     -3.47198023	     30.66959102	     12.55909636	     -8.35731999	      0.00000000	      0.57054276	     -2.09678866	     -1.42847642	    -20.75688224	    -37.00948534	     36.26112998	     83.72071946	     89.82206327	    -23.30960137	    -40.76119518	     37.23645761	     85.31044962	    101.87013849
     10.37500000	    -28.99243711	      1.21393759	      1.52835982	      1.63535748	      0.95340781	     -0.82988656	     44.86175150	     -5.09250535	     -2.85695332	     36.13932168	     19.52431518	    -11.44581979	      0.00000000	     42.81565750	     -1.02014320	     -2.95054393	     31.76602396	     13.12537715	     -8.24507269	      0.00000000	      0.65501002	     -1.87109681	     -1.77649144	    -20.45191705	    -37.23930736	     36.65810492	     83.96044166	     89.80414001	    -23.43076889	    -40.75836007	     37.28163159	     85.55370284	    101.78321360
     10.38333330	    -28.96155279	      1.22013456	      1.59297933	      1.63614712	      0.94910057	     -0.83049207	     45.31246089	     -5.14515139	     -2.69068561	     36.99244381	     20.35607500	    -11.57227497	      0.00000000	     43.52052522	     -0.99050319	     -2.68971404	     32.88319221	     13.65094088	     -8.28803510	      0.00000000	      0.24942007	     -1.84404292	     -1.92847885	    -20.14166186	    -37.27636962	     36.77325195	     84.00712331	     89.79202974	    -23.27361456	    -40.75255541	     37.25149944	     85.53681688	    101.74238404
